<svg width="90" height="90" viewBox="0 0 90 90" fill="none" xmlns="http://www.w3.org/2000/svg">
<circle cx="45" cy="45" r="45" fill="white"/>
<path d="M45 41.4375C38.9594 41.4375 34.0625 36.5406 34.0625 30.5C34.0625 24.4594 38.9594 19.5625 45 19.5625C51.0406 19.5625 55.9375 24.4594 55.9375 30.5C55.9375 36.5406 51.0406 41.4375 45 41.4375Z" fill="#E84142"/>
<path d="M37.2344 44.5625H52.7656C56.092 44.5666 59.2809 45.8899 61.633 48.242C63.9851 50.5941 65.3084 53.783 65.3125 57.1094V64.875C65.3125 65.2894 65.1479 65.6868 64.8549 65.9799C64.5618 66.2729 64.1644 66.4375 63.75 66.4375H26.25C25.8356 66.4375 25.4382 66.2729 25.1451 65.9799C24.8521 65.6868 24.6875 65.2894 24.6875 64.875V57.1094C24.6916 53.783 26.0149 50.5941 28.367 48.242C30.7191 45.8899 33.908 44.5666 37.2344 44.5625Z" fill="#E84142"/>
</svg>
