<svg width="90" height="90" viewBox="0 0 90 90" fill="none" xmlns="http://www.w3.org/2000/svg">
<circle cx="45" cy="45" r="45" fill="white"/>
<path d="M53.3492 48.3432C51.841 47.5193 50.1113 47.0518 48.2727 47.0518H43.9027C42.0125 47.0518 40.2383 47.5463 38.702 48.4123C35.4711 50.2311 33.2891 53.6939 33.2891 57.6654V60.9396H58.8863V57.6654C58.8863 53.6424 56.648 50.1432 53.3492 48.3432Z" fill="#E84142"/>
<path d="M65.4164 44.1436H61.7836C59.6625 44.1436 57.6855 44.7705 56.0273 45.851C56.8242 46.3736 57.573 46.9842 58.2633 47.6744C60.9316 50.3428 62.4012 53.8912 62.4012 57.6658V59.2057H75.9984V54.7256C75.9984 48.8908 71.2512 44.1436 65.4164 44.1436Z" fill="#E84142"/>
<path d="M30.2148 44.1436H26.582C20.7473 44.1436 16 48.8908 16 54.7256V59.2057H29.7742V57.6658C29.7742 53.8912 31.2449 50.3428 33.9133 47.6744C34.5777 47.01 35.2961 46.4193 36.0602 45.9096C34.3844 44.7939 32.3746 44.1436 30.2148 44.1436Z" fill="#E84142"/>
<path d="M63.5957 28.2285C63.577 28.2285 63.5577 28.2286 63.5389 28.2289C59.6064 28.2613 56.4348 31.6604 56.469 35.8056C56.5031 39.9312 59.6993 43.2648 63.6064 43.2648C63.6252 43.2648 63.6444 43.2647 63.6632 43.2645C65.5915 43.2486 67.3909 42.4362 68.7301 40.9769C70.0382 39.5514 70.7495 37.6731 70.7332 35.6877C70.6991 31.5621 67.5029 28.2285 63.5957 28.2285Z" fill="#E84142"/>
<path d="M28.3925 28.2285C28.3739 28.2285 28.3546 28.2286 28.3358 28.2289C24.4032 28.2613 21.2317 31.6604 21.2659 35.8056C21.2999 39.9312 24.4962 43.2648 28.4033 43.2648C28.4221 43.2648 28.4413 43.2647 28.46 43.2645C30.3882 43.2486 32.1878 42.4362 33.527 40.9769C34.8352 39.5514 35.5465 37.6731 35.5301 35.6877C35.496 31.5621 32.2998 28.2285 28.3925 28.2285Z" fill="#E84142"/>
<path d="M46.0891 27.0596C41.5551 27.0596 37.8672 30.9561 37.8672 35.7467C37.8672 39.2084 39.7937 42.2037 42.5746 43.5982C43.641 44.1338 44.8328 44.4326 46.0891 44.4326C47.3453 44.4326 48.5371 44.1338 49.6035 43.5982C52.3844 42.2037 54.3109 39.2084 54.3109 35.7467C54.3109 30.9561 50.623 27.0596 46.0891 27.0596Z" fill="#E84142"/>
</svg>
