<svg width="90" height="90" viewBox="0 0 90 90" fill="none" xmlns="http://www.w3.org/2000/svg">
<circle cx="45" cy="45" r="45" fill="white"/>
<path d="M66.1875 23.3438H23.8125C22.2619 23.3438 21 24.6056 21 26.1562V54.0938C21 55.6444 22.2619 56.9062 23.8125 56.9062H66.1875C67.7381 56.9062 69 55.6444 69 54.0938V26.1562C69 24.6056 67.7381 23.3438 66.1875 23.3438Z" fill="#E84142"/>
<path d="M60 63.8438H52.4062V59.7188H37.5938V63.8438H30C29.2237 63.8438 28.5938 64.4738 28.5938 65.25C28.5938 66.0262 29.2237 66.6562 30 66.6562H60C60.7762 66.6562 61.4062 66.0262 61.4062 65.25C61.4062 64.4738 60.7762 63.8438 60 63.8438Z" fill="#E84142"/>
</svg>
